<?xml version="1.0" encoding="UTF-8" standalone="no"?>
<svg
   xmlns:dc="http://purl.org/dc/elements/1.1/"
   xmlns:cc="http://creativecommons.org/ns#"
   xmlns:rdf="http://www.w3.org/1999/02/22-rdf-syntax-ns#"
   xmlns:svg="http://www.w3.org/2000/svg"
   xmlns="http://www.w3.org/2000/svg"
   viewBox="0 0 1133.8586 1511.8134"
   height="1511.8134"
   width="1133.8586"
   xml:space="preserve"
   id="svg2"
   version="1.1"><metadata
     id="metadata8"><rdf:RDF><cc:Work
         rdf:about=""><dc:format>image/svg+xml</dc:format><dc:type
           rdf:resource="http://purl.org/dc/dcmitype/StillImage" /></cc:Work></rdf:RDF></metadata><defs
     id="defs6"><clipPath
       id="clipPath18"
       clipPathUnits="userSpaceOnUse"><path
         id="path16"
         d="M 0,1133.858 H 850.394 V 0 H 0 Z" /></clipPath></defs><g
     transform="matrix(1.3333333,0,0,-1.3333333,0,1511.8133)"
     id="g10"><g
       id="g12"><g
         clip-path="url(#clipPath18)"
         id="g14"><g
           transform="translate(631.5881,633.4864)"
           id="g20"><path
             id="path22"
             style="fill:#ffdb47;fill-opacity:1;fill-rule:nonzero;stroke:none"
             d="m 0,0 c 0,0 55.63,54.394 107.552,58.103 0,0 12.362,-87.772 -82.828,-119.914 z" /></g><g
           transform="translate(637.7527,632.1159)"
           id="g24"><path
             id="path26"
             style="fill:#292929;fill-opacity:1;fill-rule:nonzero;stroke:none"
             d="M 0,0 21.542,-53.852 C 95.057,-26.56 97.582,35.504 96.651,53.738 54.751,48.021 10.832,9.927 0,0 m 15.55,-66.961 -27.851,69.627 2.49,2.433 C -7.483,7.375 47.8,60.874 101.016,64.675 l 4.857,0.347 0.679,-4.822 c 0.132,-0.946 3.159,-23.48 -5.943,-50.306 -8.416,-24.8 -29.192,-57.991 -80.381,-75.276 z" /></g><g
           transform="translate(158.1721,631.7206)"
           id="g28"><path
             id="path30"
             style="fill:#ffdb47;fill-opacity:1;fill-rule:nonzero;stroke:none"
             d="m 0,0 c 0,0 -45.609,63.033 -96.152,75.486 0,0 -27.055,-84.408 61.312,-132.214 z" /></g><g
           transform="translate(65.716,700.7514)"
           id="g32"><path
             id="path34"
             style="fill:#292929;fill-opacity:1;fill-rule:nonzero;stroke:none"
             d="m 0,0 c -4.005,-17.802 -12.039,-79.404 55.794,-118.76 l 30.353,49.422 C 77.144,-57.716 40.282,-12.724 0,0 m 59.477,-132.694 -4.342,2.349 c -47.522,25.708 -62.373,61.939 -66.464,87.805 -4.425,27.982 2.375,49.677 2.667,50.587 l 1.486,4.637 4.728,-1.165 C 49.356,-1.245 94.773,-63.337 96.681,-65.974 l 2.04,-2.819 z" /></g><g
           transform="translate(678.5646,624.5239)"
           id="g36"><path
             id="path38"
             style="fill:#ffdb47;fill-opacity:1;fill-rule:nonzero;stroke:none"
             d="m 0,0 c 0,0 -74.792,165.036 -220.357,208.304 0,0 -85.609,22.561 -171.835,-35.851 0,0 -171.163,-119.596 -211.395,-222.52 0,0 -25.034,-100.134 77.882,-114.042 0,0 92.736,-11.823 201.364,-14.865 l 9.104,-42.619 h 87.153 l -6.849,42.465 c 94.4,2.67 185.42,15.573 226.588,51.179 0,0 58.644,44.04 8.345,127.949" /></g><g
           transform="translate(456.6057,397.7155)"
           id="g40"><path
             id="path42"
             style="fill:#292929;fill-opacity:1;fill-rule:nonzero;stroke:none"
             d="m 0,0 h -97.498 l -9.128,42.741 c -105.903,3.191 -196.861,14.668 -197.78,14.786 -32.031,4.328 -55.479,17.179 -69.73,38.202 -23.923,35.288 -13.028,80.375 -12.552,82.278 l 0.202,0.633 c 40.344,103.21 206.223,219.977 213.265,224.897 20.992,14.22 43.679,24.901 67.497,31.787 2.857,0.826 5.758,1.605 8.622,2.316 2.796,0.7 5.624,-1.008 6.318,-3.805 0.693,-2.795 -1.01,-5.624 -3.806,-6.318 -2.736,-0.679 -5.508,-1.424 -8.237,-2.213 -22.766,-6.583 -44.46,-16.797 -64.481,-30.36 -1.635,-1.143 -169.883,-119.571 -209.329,-219.759 -0.862,-3.806 -9.207,-43.666 11.175,-73.663 12.52,-18.426 33.52,-29.748 62.415,-33.654 0.886,-0.112 93.709,-11.822 200.811,-14.82 l 4.098,-0.114 9.078,-42.503 h 76.812 l -6.821,42.295 5.949,0.169 c 113.607,3.213 188.744,20.003 223.322,49.909 l 0.281,0.225 c 2.223,1.688 54.154,42.442 7.002,121.099 l -0.275,0.526 c -0.739,1.63 -75.557,163.389 -217.094,205.459 -0.012,0 -8.108,2.077 -21.476,3.256 -2.869,0.253 -4.99,2.784 -4.737,5.653 0.253,2.87 2.744,5.008 5.653,4.737 14.414,-1.271 23.015,-3.509 23.374,-3.604 76.661,-22.783 133.4,-79.016 167.53,-122.186 35.698,-45.158 54.28,-84.722 56.121,-88.73 C 276.928,144.97 220.798,97.918 216.947,94.846 181.096,63.91 105.814,46.357 -6.88,42.65 Z" /></g><g
           transform="translate(735.2299,945.1574)"
           id="g44"><path
             id="path46"
             style="fill:#3c4867;fill-opacity:1;fill-rule:nonzero;stroke:none"
             d="m 0,0 -28.693,34.185 -44.285,-5.535 23.482,39.328 -17.825,41.379 43.205,-9.879 33.269,31.109 3.22,-45.433 L 50.76,63.001 9.545,44.8 Z" /></g><g
           transform="translate(708.7076,984.8695)"
           id="g48"><path
             id="path50"
             style="fill:#292929;fill-opacity:1;fill-rule:nonzero;stroke:none"
             d="M 0,0 23.648,-28.175 31.522,8.781 65.774,23.908 33.889,42.309 31.247,79.594 3.944,54.065 -31.944,62.27 -17.129,27.881 -36.499,-4.562 Z M 29.397,-51.249 -4.339,-11.054 -56.411,-17.562 -28.819,28.651 -49.656,77.02 0.868,65.468 40.105,102.156 43.9,48.574 88.791,22.669 40.612,1.394 Z" /></g><g
           transform="translate(236.614,447.5891)"
           id="g52"><path
             id="path54"
             style="fill:#964054;fill-opacity:1;fill-rule:nonzero;stroke:none"
             d="m 0,0 c -8.035,0.618 -24.547,-4.335 -20.707,-35.851 0,0 -1.514,-17.349 -6.49,-24.106 0,0 -19.47,-20.398 -9.272,-44.504 8.246,-8.638 23.244,-16.689 42.836,-23.521 7.079,58.81 24.235,102.518 35.009,125.316 C 24.169,-1.563 10.073,-0.56 0,0" /></g><g
           transform="translate(565.45,376.5061)"
           id="g56"><path
             id="path58"
             style="fill:#964054;fill-opacity:1;fill-rule:nonzero;stroke:none"
             d="m 0,0 c 0,12.362 -14.217,14.835 -17.925,38.323 0,0 2.472,28.433 -16.689,29.051 -15.602,-1.211 -31.126,-2.104 -46.445,-2.739 10.464,-21.752 27.854,-64.873 35.414,-123.353 8.39,2.846 16.525,6.024 24.32,9.578 0,0 26.888,12.671 21.325,49.14" /></g><g
           transform="translate(277.9898,444.9234)"
           id="g60"><path
             id="path62"
             style="fill:#3c4867;fill-opacity:1;fill-rule:nonzero;stroke:none"
             d="m 0,0 c -10.774,-22.799 -27.93,-66.506 -35.009,-125.316 66.715,-23.262 186.888,-32.321 276.824,-1.819 -7.56,58.479 -24.95,101.6 -35.414,123.352 C 124.993,-7.159 49.501,-3.171 0,0" /></g><g
           transform="translate(204.2725,346.3201)"
           id="g64"><path
             id="path66"
             style="fill:#292929;fill-opacity:1;fill-rule:nonzero;stroke:none"
             d="m 0,0 c 35.519,-42.725 222.638,-66.675 337.689,-14.21 0.868,0.422 23.16,11.621 18.348,43.501 -1.18,5.951 -4.018,9.282 -7.3,13.139 -4.781,5.616 -10.2,11.983 -10.695,25.893 l -0.013,0.318 0.029,0.319 c 0.318,3.824 0.1,14.946 -4.675,20.306 -1.734,1.947 -3.875,2.927 -6.723,3.072 C 216.883,83.84 111.631,90.836 55.057,94.599 46,95.202 38.265,95.715 32.052,96.062 l -0.11,0.008 C 30.508,96.184 25.533,96.221 21.605,92.112 16.981,87.275 15.323,78.264 16.811,66.049 l 0.026,-0.261 c 0.043,-0.601 0.958,-14.9 -7.353,-27.37 L 9.225,38.062 C 3.886,31.331 -8.141,11.411 0,0 m 177.467,-54.578 c -13.01,0 -26.171,0.475 -39.402,1.439 -70.739,5.15 -126.766,23.016 -146.218,46.63 l -0.187,0.242 c -14.241,19.515 7.029,47.782 9.254,50.634 5.848,8.909 5.568,19.515 5.523,20.59 -1.866,15.557 0.7,27.118 7.63,34.364 4.774,4.992 11.726,7.65 18.617,7.153 6.235,-0.348 13.989,-0.864 23.065,-1.467 56.363,-3.748 161.279,-10.722 270.412,-2.247 l 0.285,0.023 0.287,-0.008 c 5.798,-0.188 10.799,-2.47 14.464,-6.599 8.188,-9.227 7.499,-24.753 7.279,-27.772 0.424,-10.076 4.032,-14.313 8.204,-19.215 3.714,-4.362 7.925,-9.308 9.616,-18.009 l 0.037,-0.208 C 372.412,-8.88 342.381,-23.528 342.075,-23.673 298.022,-43.76 239.566,-54.576 177.467,-54.578" /></g><g
           transform="translate(351.4843,578.2422)"
           id="g68"><path
             id="path70"
             style="fill:#292929;fill-opacity:1;fill-rule:nonzero;stroke:none"
             d="m 0,0 c -6.634,-0.001 -12.166,5.211 -12.491,11.909 -1.877,38.601 19.326,76.716 20.229,78.319 3.394,6.021 11.027,8.151 17.05,4.761 6.018,-3.391 8.151,-11.014 4.769,-17.035 C 29.371,77.622 10.992,44.403 12.513,13.125 12.848,6.22 7.523,0.35 0.618,0.014 0.412,0.005 0.205,0 0,0" /></g><g
           transform="translate(409.5475,578.2422)"
           id="g72"><path
             id="path74"
             style="fill:#292929;fill-opacity:1;fill-rule:nonzero;stroke:none"
             d="M 0,0 C -6.633,0 -12.166,5.211 -12.492,11.909 -14.37,50.51 6.835,88.625 7.737,90.228 c 3.394,6.022 11.026,8.155 17.05,4.761 6.018,-3.391 8.151,-11.014 4.769,-17.035 C 29.371,77.622 10.991,44.404 12.513,13.125 12.849,6.22 7.523,0.35 0.618,0.015 0.412,0.005 0.205,0 0,0" /></g><g
           transform="translate(303.4166,51.4002)"
           id="g76"><path
             id="path78"
             style="fill:#964054;fill-opacity:1;fill-rule:nonzero;stroke:none"
             d="m 0,0 -26.254,11.003 c -1.279,0.537 -1.882,2.009 -1.346,3.289 L 6.297,95.167 c 0.536,1.28 2.009,1.883 3.288,1.347 L 35.839,85.51 c 1.28,-0.536 1.883,-2.009 1.346,-3.289 L 3.289,1.346 C 2.752,0.066 1.28,-0.536 0,0" /></g><g
           transform="translate(302.9139,57.2653)"
           id="g80"><path
             id="path82"
             style="fill:#292929;fill-opacity:1;fill-rule:nonzero;stroke:none"
             d="M 0,0 C 0.007,-0.002 0.011,-0.004 0.011,-0.004 L 31.823,75.856 10.59,84.784 -21.232,8.927 Z m -0.004,-10.433 c -1.345,0 -2.71,0.261 -4.026,0.813 h -10e-4 l -21.219,8.893 c -5.318,2.233 -7.83,8.371 -5.602,13.688 L 0.934,88.803 c 2.233,5.315 8.374,7.829 13.686,5.6 l 21.22,-8.892 c 5.32,-2.231 7.832,-8.373 5.601,-13.688 L 9.656,-4.019 c -1.677,-4 -5.57,-6.414 -9.66,-6.414" /></g><g
           transform="translate(272.0938,63.4024)"
           id="g84"><path
             id="path86"
             style="fill:#3c4867;fill-opacity:1;fill-rule:nonzero;stroke:none"
             d="m 0,0 -26.254,11.003 c -1.279,0.537 -1.882,2.009 -1.346,3.289 L 6.297,95.167 c 0.536,1.28 2.009,1.883 3.289,1.347 L 35.839,85.51 c 1.28,-0.536 1.883,-2.009 1.346,-3.289 L 3.289,1.346 C 2.752,0.066 1.28,-0.536 0,0" /></g><g
           transform="translate(271.5914,69.2666)"
           id="g88"><path
             id="path90"
             style="fill:#292929;fill-opacity:1;fill-rule:nonzero;stroke:none"
             d="M 0,0 0.01,-0.004 31.823,75.856 10.59,84.784 -21.232,8.927 Z m -0.003,-10.433 c -1.345,0 -2.712,0.261 -4.027,0.813 h -10e-4 l -21.219,8.895 c -2.576,1.077 -4.577,3.096 -5.636,5.682 -1.058,2.585 -1.046,5.429 0.035,8.004 L 0.934,88.803 c 1.08,2.575 3.099,4.578 5.684,5.635 2.586,1.062 5.43,1.045 8.005,-0.034 L 35.84,85.511 c 2.576,-1.08 4.578,-3.097 5.636,-5.682 1.058,-2.585 1.046,-5.429 -0.034,-8.006 L 9.656,-4.017 c -1.677,-4.002 -5.569,-6.416 -9.659,-6.416" /></g><g
           transform="translate(241.6103,77.3145)"
           id="g92"><path
             id="path94"
             style="fill:#964054;fill-opacity:1;fill-rule:nonzero;stroke:none"
             d="m 0,0 -26.254,11.003 c -1.279,0.537 -1.882,2.009 -1.346,3.289 L 6.297,95.167 c 0.536,1.28 2.009,1.883 3.288,1.347 L 35.839,85.51 c 1.28,-0.536 1.883,-2.009 1.346,-3.289 L 3.289,1.346 C 2.752,0.066 1.28,-0.536 0,0" /></g><g
           transform="translate(241.1083,83.1789)"
           id="g96"><path
             id="path98"
             style="fill:#292929;fill-opacity:1;fill-rule:nonzero;stroke:none"
             d="M 0,0 0.01,-0.004 31.823,75.856 10.589,84.784 -21.233,8.927 Z m 0.01,-10.439 c -1.37,0 -2.739,0.273 -4.04,0.819 h -10e-4 l -21.22,8.895 c -2.576,1.079 -4.577,3.096 -5.636,5.682 -1.057,2.585 -1.046,5.427 0.034,8.002 L 0.934,88.803 c 1.08,2.575 3.098,4.576 5.683,5.635 2.584,1.059 5.429,1.047 8.005,-0.035 L 35.84,85.511 c 5.316,-2.227 7.83,-8.367 5.603,-13.686 L 9.655,-4.017 C 8.577,-6.592 6.559,-8.595 3.973,-9.652 2.694,-10.176 1.352,-10.439 0.01,-10.439" /></g><g
           transform="translate(211.1268,91.2266)"
           id="g100"><path
             id="path102"
             style="fill:#3c4867;fill-opacity:1;fill-rule:nonzero;stroke:none"
             d="m 0,0 -26.254,11.003 c -1.279,0.537 -1.882,2.009 -1.346,3.289 L 6.297,95.167 c 0.536,1.28 2.009,1.883 3.288,1.347 L 35.839,85.51 c 1.28,-0.536 1.883,-2.009 1.346,-3.289 L 3.289,1.346 C 2.752,0.066 1.28,-0.536 0,0" /></g><g
           transform="translate(210.6241,97.0912)"
           id="g104"><path
             id="path106"
             style="fill:#292929;fill-opacity:1;fill-rule:nonzero;stroke:none"
             d="M 0,0 C 0.007,-0.002 0.01,-0.004 0.011,-0.004 L 31.823,75.857 10.59,84.784 -21.232,8.927 Z m -0.004,-10.433 c -1.344,0 -2.71,0.261 -4.026,0.813 h -10e-4 l -21.219,8.895 c -2.575,1.079 -4.577,3.096 -5.636,5.682 -1.058,2.585 -1.046,5.429 0.035,8.004 L 0.935,88.803 c 2.23,5.315 8.374,7.829 13.685,5.601 L 35.84,85.511 C 41.158,83.28 43.671,77.14 41.442,71.823 L 9.657,-4.017 c -1.678,-4.002 -5.57,-6.416 -9.661,-6.416" /></g><g
           transform="translate(433.5934,335.5412)"
           id="g108"><path
             id="path110"
             style="fill:#964054;fill-opacity:1;fill-rule:nonzero;stroke:none"
             d="m 0,0 c 18.959,59.954 -0.34,77.244 -33.238,92.208 -34.004,15.467 -67.394,17.346 -99.375,-39.419 C -107.57,48.561 -49.919,35.534 0,0" /></g><g
           transform="translate(232.0204,235.1299)"
           id="g112"><path
             id="path114"
             style="fill:#964054;fill-opacity:1;fill-rule:nonzero;stroke:none"
             d="m 0,0 c -5.43,-12.884 -10.007,-23.841 -13.095,-31.282 -2.669,-6.431 0.158,-13.695 6.321,-16.276 l 110.896,-46.448 c 5.958,-2.495 12.923,0.302 15.854,6.361 5.352,11.068 10.65,22.294 15.808,33.426 C 84.453,-17.041 24.415,-3.989 0,0" /></g><g
           transform="translate(253.8432,286.3869)"
           id="g116"><path
             id="path118"
             style="fill:#3c4867;fill-opacity:1;fill-rule:nonzero;stroke:none"
             d="m 0,0 c -7.773,-18.051 -15.395,-36.005 -21.823,-51.257 24.415,-3.989 84.453,-17.041 135.784,-54.218 8.109,17.501 15.869,34.764 22.945,50.807 C 85.004,-16.887 24.05,-3.871 0,0" /></g><g
           transform="translate(433.5934,335.5412)"
           id="g120"><path
             id="path122"
             style="fill:#3c4867;fill-opacity:1;fill-rule:nonzero;stroke:none"
             d="m 0,0 c -49.919,35.534 -107.57,48.561 -132.613,52.789 -2.034,-3.61 -4.063,-7.442 -6.085,-11.537 -4.204,-7.744 -10.881,-21.989 -18.63,-39.246 23.967,-3.853 84.79,-16.818 136.667,-54.462 8.629,20.4 13.867,33.301 13.867,33.301 C -4.131,-12.318 -1.883,-5.956 0,0" /></g><g
           transform="translate(276.2649,337.5472)"
           id="g124"><path
             id="path126"
             style="fill:#964054;fill-opacity:1;fill-rule:nonzero;stroke:none"
             d="m 0,0 c -6.947,-15.469 -14.756,-33.358 -22.422,-51.16 24.05,-3.871 85.004,-16.888 136.906,-54.668 8.615,19.532 16.212,37.245 22.184,51.366 C 84.79,-16.818 23.967,-3.853 0,0" /></g><g
           transform="translate(364.0229,431.8906)"
           id="g128"><path
             id="path130"
             style="fill:#292929;fill-opacity:1;fill-rule:nonzero;stroke:none"
             d="m 0,0 c -22.556,0 -43.394,-14.76 -64.451,-57.405 -14.595,-26.892 -59.681,-133.724 -75.83,-172.636 -1.559,-3.756 0.02,-8.002 3.519,-9.469 l 110.896,-46.447 c 3.401,-1.418 7.419,0.255 9.144,3.822 38,78.576 73.762,166.367 74.652,168.557 28.888,74.2 9.349,89.63 -23.756,104.69 C 22.238,-3.459 10.916,0 0,0 m -23.351,-296.895 c -2.194,0 -4.412,0.424 -6.544,1.318 l -110.896,46.447 c -8.787,3.68 -12.88,14.037 -9.124,23.086 16.207,39.052 61.49,146.333 76.204,173.434 37.024,74.999 77.502,69 112.204,53.215 41.376,-18.82 58.275,-43.2 29.142,-118.003 l -0.026,-0.069 c -0.361,-0.888 -36.5,-89.722 -74.941,-169.209 -3.102,-6.415 -9.449,-10.219 -16.019,-10.219" /></g><g
           transform="translate(464.3178,54.3488)"
           id="g132"><path
             id="path134"
             style="fill:#964054;fill-opacity:1;fill-rule:nonzero;stroke:none"
             d="m 0,0 -28.462,-0.487 c -1.388,-0.024 -2.532,1.082 -2.555,2.469 l -1.501,87.679 c -0.024,1.387 1.081,2.531 2.469,2.555 l 28.462,0.487 c 1.388,0.024 2.532,-1.082 2.555,-2.469 L 2.469,2.555 C 2.493,1.168 1.388,0.024 0,0" /></g><g
           transform="translate(460.1179,141.7653)"
           id="g136"><path
             id="path138"
             style="fill:#292929;fill-opacity:1;fill-rule:nonzero;stroke:none"
             d="m 0,0 -23.031,-0.369 1.381,-82.247 23.043,0.369 z m -21.623,-93.073 c -5.684,0 -10.355,4.571 -10.457,10.276 l -1.408,82.222 c -0.047,2.796 0.996,5.438 2.938,7.447 1.941,2.01 4.549,3.141 7.342,3.19 l 23.002,0.393 h 0.18 c 5.687,0 10.359,-4.573 10.457,-10.278 l 1.407,-82.221 c 0.047,-2.793 -0.996,-5.437 -2.937,-7.446 -1.942,-2.006 -4.547,-3.139 -7.34,-3.188 l -23.005,-0.395 z" /></g><g
           transform="translate(430.813,52.7367)"
           id="g140"><path
             id="path142"
             style="fill:#3c4867;fill-opacity:1;fill-rule:nonzero;stroke:none"
             d="m 0,0 -28.462,-0.487 c -1.388,-0.024 -2.532,1.082 -2.555,2.469 l -1.501,87.679 c -0.024,1.387 1.081,2.531 2.469,2.555 l 28.462,0.487 c 1.388,0.024 2.532,-1.082 2.555,-2.469 L 2.469,2.555 C 2.493,1.168 1.388,0.024 0,0" /></g><g
           transform="translate(426.6135,140.1518)"
           id="g144"><path
             id="path146"
             style="fill:#292929;fill-opacity:1;fill-rule:nonzero;stroke:none"
             d="m 0,0 -23.032,-0.367 1.381,-82.247 23.032,0.367 h 0.01 z m -21.624,-93.071 c -5.684,0 -10.358,4.573 -10.455,10.278 l -1.407,82.221 c -0.1,5.763 4.509,10.534 10.274,10.636 l 23.006,0.393 h 0.18 c 5.683,0 10.355,-4.571 10.457,-10.276 l 1.407,-82.223 C 11.934,-87.805 7.326,-92.576 1.563,-92.678 H 1.561 l -23.006,-0.393 z" /></g><g
           transform="translate(397.3083,53.2108)"
           id="g148"><path
             id="path150"
             style="fill:#964054;fill-opacity:1;fill-rule:nonzero;stroke:none"
             d="m 0,0 -28.462,-0.487 c -1.388,-0.024 -2.532,1.082 -2.555,2.469 l -1.501,87.679 c -0.024,1.387 1.081,2.531 2.469,2.555 l 28.462,0.487 c 1.388,0.024 2.532,-1.082 2.555,-2.469 L 2.469,2.555 C 2.493,1.168 1.388,0.024 0,0" /></g><g
           transform="translate(393.1091,140.6264)"
           id="g152"><path
             id="path154"
             style="fill:#292929;fill-opacity:1;fill-rule:nonzero;stroke:none"
             d="m 0,0 -23.031,-0.369 1.38,-82.247 23.043,0.369 z m -21.624,-93.071 c -5.684,0 -10.358,4.571 -10.455,10.276 l -1.408,82.223 c -0.048,2.793 0.995,5.437 2.937,7.446 1.941,2.008 4.549,3.139 7.342,3.188 l 23.002,0.395 C 5.631,10.506 10.33,5.943 10.429,0.179 l 1.407,-82.221 C 11.934,-87.809 7.324,-92.58 1.559,-92.678 l -23.004,-0.393 z" /></g><g
           transform="translate(363.8036,53.6849)"
           id="g156"><path
             id="path158"
             style="fill:#3c4867;fill-opacity:1;fill-rule:nonzero;stroke:none"
             d="m 0,0 -28.462,-0.487 c -1.388,-0.024 -2.532,1.082 -2.555,2.469 l -1.501,87.679 c -0.024,1.387 1.081,2.531 2.469,2.555 l 28.462,0.487 c 1.388,0.024 2.532,-1.082 2.555,-2.469 L 2.469,2.555 C 2.493,1.168 1.388,0.024 0,0" /></g><g
           transform="translate(359.6047,141.1011)"
           id="g160"><path
             id="path162"
             style="fill:#292929;fill-opacity:1;fill-rule:nonzero;stroke:none"
             d="m 0,0 -23.032,-0.369 1.381,-82.247 23.043,0.369 z m -21.634,-93.071 c -2.721,0 -5.292,1.037 -7.256,2.936 -2.01,1.941 -3.142,4.547 -3.189,7.342 l -1.408,82.218 c -0.049,2.794 0.994,5.438 2.936,7.447 1.941,2.01 4.548,3.141 7.342,3.19 l 23.003,0.393 c 2.76,0.002 5.437,-0.994 7.445,-2.936 2.009,-1.939 3.142,-4.547 3.19,-7.34 l 1.407,-82.221 c 0.048,-2.795 -0.995,-5.437 -2.935,-7.446 -1.942,-2.01 -4.549,-3.141 -7.344,-3.19 l -23.003,-0.393 z" /></g><g
           transform="translate(469.1952,366.852)"
           id="g164"><path
             id="path166"
             style="fill:#964054;fill-opacity:1;fill-rule:nonzero;stroke:none"
             d="M 0,0 C -6.761,62.516 -31.384,70.582 -67.523,71.048 -104.877,71.529 -136.201,59.817 -142.646,-5.018 -118.017,1.186 -59.996,12.451 0,0" /></g><g
           transform="translate(325.0437,193.8363)"
           id="g168"><path
             id="path170"
             style="fill:#964054;fill-opacity:1;fill-rule:nonzero;stroke:none"
             d="m 0,0 c 0.212,-13.98 0.429,-25.853 0.595,-33.908 0.143,-6.961 5.654,-12.473 12.335,-12.357 l 120.212,2.087 c 6.458,0.112 11.71,5.474 11.955,12.201 0.448,12.285 0.782,24.694 1.026,36.961 C 84.173,18.372 23.957,6.17 0,0" /></g><g
           transform="translate(324.4037,249.5417)"
           id="g172"><path
             id="path174"
             style="fill:#3c4867;fill-opacity:1;fill-rule:nonzero;stroke:none"
             d="m 0,0 c 0.145,-19.653 0.389,-39.156 0.64,-55.705 23.957,6.169 84.173,18.371 146.123,4.983 0.384,19.285 0.544,38.212 0.569,55.746 C 84.616,18.734 23.575,6.131 0,0" /></g><g
           transform="translate(469.1952,366.852)"
           id="g176"><path
             id="path178"
             style="fill:#3c4867;fill-opacity:1;fill-rule:nonzero;stroke:none"
             d="m 0,0 c -59.996,12.451 -118.017,1.186 -142.646,-5.018 -0.409,-4.122 -0.725,-8.446 -0.929,-13.009 -0.734,-8.782 -1.116,-24.509 -1.269,-43.425 23.492,6.114 84.392,18.711 147.031,5.116 C 1.879,-34.188 1.486,-20.27 1.486,-20.27 1.173,-12.939 0.672,-6.21 0,0" /></g><g
           transform="translate(324.3508,305.3997)"
           id="g180"><path
             id="path182"
             style="fill:#964054;fill-opacity:1;fill-rule:nonzero;stroke:none"
             d="m 0,0 c -0.137,-16.957 -0.09,-36.476 0.053,-55.858 23.575,6.131 84.616,18.734 147.331,5.024 0.03,21.347 -0.14,40.62 -0.353,55.95 C 84.393,18.712 23.493,6.114 0,0" /></g><g
           transform="translate(399.5325,432.6989)"
           id="g184"><path
             id="path186"
             style="fill:#292929;fill-opacity:1;fill-rule:nonzero;stroke:none"
             d="m 0,0 c -39.076,0 -65.608,-14.813 -68.702,-84.107 -2.548,-30.524 -0.847,-146.447 0.023,-188.555 0.082,-4.023 3.175,-7.252 6.916,-7.252 0.038,0 0.075,0 0.113,0.002 l 120.214,2.086 c 3.686,0.063 6.687,3.217 6.833,7.177 3.18,87.235 0.605,181.982 0.54,184.346 C 62.533,-6.751 38.439,-0.483 2.072,-0.014 1.379,-0.004 0.685,0 0,0 m -61.765,-290.345 c -9.392,0 -17.143,7.774 -17.343,17.467 -0.873,42.261 -2.574,158.673 -10e-4,189.437 3.726,83.555 43.194,94.367 81.315,93.857 C 47.659,9.83 72.937,-5.694 76.36,-85.896 l 0.002,-0.075 c 0.026,-0.958 2.675,-96.824 -0.542,-185.059 -0.349,-9.5 -7.848,-17.066 -17.076,-17.227 l -120.213,-2.086 c -0.098,0 -0.197,-0.002 -0.296,-0.002" /></g><g
           transform="translate(383.3884,821.1226)"
           id="g188"><path
             id="path190"
             style="fill:#292929;fill-opacity:1;fill-rule:nonzero;stroke:none"
             d="m 0,0 c -2.663,0 -4.936,2.029 -5.187,4.734 -4.012,43.272 7.753,80.483 34.968,110.595 73.995,81.872 235.319,84.186 242.15,84.244 h 0.045 c 2.86,0 5.189,-2.305 5.215,-5.17 0.025,-2.88 -2.289,-5.235 -5.17,-5.261 -1.628,-0.014 -163.617,-2.35 -234.516,-80.823 C 12.338,80.463 1.468,45.937 5.199,5.697 5.465,2.829 3.355,0.288 0.488,0.022 0.324,0.007 0.161,0 0,0" /></g></g></g></g></svg>